<svg xmlns="http://www.w3.org/2000/svg" xmlns:xlink="http://www.w3.org/1999/xlink" viewBox="0 0 298.49 298.49"><defs><style>.cls-1{isolation:isolate;}.cls-2,.cls-4{stroke:#fff;stroke-miterlimit:10;}.cls-2{stroke-width:0.85px;fill:url(#名称未設定グラデーション_104);}.cls-3{mix-blend-mode:soft-light;}.cls-4{fill:none;stroke-width:0.43px;}.cls-5{fill:#aac7e9;}.cls-6{opacity:0.2;}.cls-7{fill:#f7f8f8;}</style><linearGradient id="名称未設定グラデーション_104" x1="149.24" y1="0.43" x2="149.24" y2="298.06" gradientUnits="userSpaceOnUse"><stop offset="0" stop-color="#152248"/><stop offset="1" stop-color="#164681"/></linearGradient></defs><title>Mapping Plane</title><g class="cls-1"><g id="レイヤー_2" data-name="レイヤー 2"><g id="Screen"><g id="Mapping_Plane" data-name="Mapping Plane"><rect class="cls-2" x="0.43" y="0.43" width="297.64" height="297.64" rx="0.85" ry="0.85"/><g class="cls-3"><line class="cls-4" x1="30.19" y1="0.43" x2="30.19" y2="298.06"/><line class="cls-4" x1="59.95" y1="0.43" x2="59.95" y2="298.06"/><line class="cls-4" x1="89.72" y1="0.43" x2="89.72" y2="298.06"/><line class="cls-4" x1="119.48" y1="0.43" x2="119.48" y2="298.06"/><line class="cls-4" x1="149.24" y1="0.43" x2="149.24" y2="298.06"/><line class="cls-4" x1="179.01" y1="0.43" x2="179.01" y2="298.06"/><line class="cls-4" x1="208.77" y1="0.43" x2="208.77" y2="298.06"/><line class="cls-4" x1="238.54" y1="0.43" x2="238.54" y2="298.06"/><line class="cls-4" x1="268.3" y1="0.43" x2="268.3" y2="298.06"/><line class="cls-4" x1="298.06" y1="30.19" x2="0.43" y2="30.19"/><line class="cls-4" x1="298.06" y1="59.95" x2="0.43" y2="59.95"/><line class="cls-4" x1="298.06" y1="89.72" x2="0.43" y2="89.72"/><line class="cls-4" x1="298.06" y1="119.48" x2="0.43" y2="119.48"/><line class="cls-4" x1="298.06" y1="149.24" x2="0.43" y2="149.24"/><line class="cls-4" x1="298.06" y1="179.01" x2="0.43" y2="179.01"/><line class="cls-4" x1="298.06" y1="208.77" x2="0.43" y2="208.77"/><line class="cls-4" x1="298.06" y1="238.54" x2="0.43" y2="238.54"/><line class="cls-4" x1="298.06" y1="268.3" x2="0.43" y2="268.3"/></g><g id="_2scTp0" data-name="2scTp0"><path class="cls-5" d="M23,8.93l.1.17A1.22,1.22,0,0,1,23,10.5l-.11.11L10.61,22.85a1.24,1.24,0,0,1-.83.38A1.21,1.21,0,0,1,9,23l-.2-.17L8,22.05a.18.18,0,0,1-.06-.13v-6a.22.22,0,0,0-.07-.17L5.75,13.65a1.21,1.21,0,0,1-.32-1.2A1.23,1.23,0,0,1,5.64,12l.18-.21,6-6.05a1.26,1.26,0,0,1,1.52-.21,1.39,1.39,0,0,1,.27.21l2.12,2.12a.18.18,0,0,0,.15.07H22ZM7.52,12.78l.07.07L9.75,15a.19.19,0,0,1,.06.15V21C9.92,20.9,21,9.87,21,9.81H15.16A.17.17,0,0,1,15,9.75L12.85,7.59l-.07-.07Z"/><path class="cls-5" d="M22.61,23.12l-.09.07a6.73,6.73,0,0,1-1.34,1,7.91,7.91,0,0,1-4,1.07.93.93,0,0,1-.88-1.3.9.9,0,0,1,.86-.57,6.48,6.48,0,0,0,1.46-.18,6.1,6.1,0,0,0,2.12-1,6.22,6.22,0,0,0,1-.94A6,6,0,0,0,23.3,18a7.36,7.36,0,0,0,.06-.81.93.93,0,0,1,1.42-.79.92.92,0,0,1,.45.82A7.77,7.77,0,0,1,25,19a8,8,0,0,1-1.15,2.64,6.64,6.64,0,0,1-.55.73l-.14.15-.06.08Z"/><path class="cls-5" d="M20.23,20.24a4.26,4.26,0,0,1-3.45,1.25.93.93,0,0,1-.72-1.41.92.92,0,0,1,.88-.45c.14,0,.29,0,.44,0a2.33,2.33,0,0,0,1.31-.52A2.43,2.43,0,0,0,19.63,17a1,1,0,0,1,.17-.65.93.93,0,0,1,1.69.46,4.3,4.3,0,0,1-.67,2.73A4.19,4.19,0,0,1,20.23,20.24Z"/><g class="cls-6"><path class="cls-7" d="M23,8.93l.1.17A1.22,1.22,0,0,1,23,10.5l-.11.11L10.61,22.85a1.24,1.24,0,0,1-.83.38A1.21,1.21,0,0,1,9,23l-.2-.17L8,22.05a.18.18,0,0,1-.06-.13v-6a.22.22,0,0,0-.07-.17L5.75,13.65a1.21,1.21,0,0,1-.32-1.2A1.23,1.23,0,0,1,5.64,12l.18-.21,6-6.05a1.26,1.26,0,0,1,1.52-.21,1.39,1.39,0,0,1,.27.21l2.12,2.12a.18.18,0,0,0,.15.07H22ZM7.52,12.78l.07.07L9.75,15a.19.19,0,0,1,.06.15V21C9.92,20.9,21,9.87,21,9.81H15.16A.17.17,0,0,1,15,9.75L12.85,7.59l-.07-.07Z"/><path class="cls-7" d="M22.61,23.12l-.09.07a6.73,6.73,0,0,1-1.34,1,7.91,7.91,0,0,1-4,1.07.93.93,0,0,1-.88-1.3.9.9,0,0,1,.86-.57,6.48,6.48,0,0,0,1.46-.18,6.1,6.1,0,0,0,2.12-1,6.22,6.22,0,0,0,1-.94A6,6,0,0,0,23.3,18a7.36,7.36,0,0,0,.06-.81.93.93,0,0,1,1.42-.79.92.92,0,0,1,.45.82A7.77,7.77,0,0,1,25,19a8,8,0,0,1-1.15,2.64,6.64,6.64,0,0,1-.55.73l-.14.15-.06.08Z"/><path class="cls-7" d="M20.23,20.24a4.26,4.26,0,0,1-3.45,1.25.93.93,0,0,1-.72-1.41.92.92,0,0,1,.88-.45c.14,0,.29,0,.44,0a2.33,2.33,0,0,0,1.31-.52A2.43,2.43,0,0,0,19.63,17a1,1,0,0,1,.17-.65.93.93,0,0,1,1.69.46,4.3,4.3,0,0,1-.67,2.73A4.19,4.19,0,0,1,20.23,20.24Z"/></g></g><g id="_2scTp0-2" data-name="2scTp0"><path class="cls-5" d="M8.93,275.52l.17-.11a1.24,1.24,0,0,1,1.4.13l.11.11,12.24,12.23a1.24,1.24,0,0,1,.38.83,1.21,1.21,0,0,1-.23.8,1.63,1.63,0,0,1-.17.2l-.78.78a.18.18,0,0,1-.13.06h-6a.23.23,0,0,0-.17.08l-2.12,2.12a1.21,1.21,0,0,1-1.2.32,1.23,1.23,0,0,1-.43-.21l-.21-.18-6.05-6.06a1.24,1.24,0,0,1-.21-1.51,1.39,1.39,0,0,1,.21-.27l2.12-2.12a.19.19,0,0,0,.07-.15c0-2,0-4,0-6v-.08ZM12.78,291l.07-.07L15,288.74a.19.19,0,0,1,.15-.06H21c-.09-.1-11.12-11.13-11.18-11.16v5.82a.17.17,0,0,1-.06.15l-2.16,2.16-.07.07Z"/><path class="cls-5" d="M23.12,275.88l.07.09a6.67,6.67,0,0,1,1,1.33,8,8,0,0,1,1.07,4,.93.93,0,0,1-1.3.88.9.9,0,0,1-.57-.86,6.57,6.57,0,0,0-.18-1.47,6.19,6.19,0,0,0-1-2.12,6.57,6.57,0,0,0-.94-1,6.12,6.12,0,0,0-3.28-1.5,7.34,7.34,0,0,0-.81-.05.89.89,0,0,1-.81-.49.91.91,0,0,1,0-.94.93.93,0,0,1,.82-.44,7.77,7.77,0,0,1,1.8.21,8,8,0,0,1,2.64,1.15,6.64,6.64,0,0,1,.73.55l.15.13a.27.27,0,0,0,.08.07Z"/><path class="cls-5" d="M20.24,278.25a4.29,4.29,0,0,1,1.25,3.46.93.93,0,0,1-1.41.72.92.92,0,0,1-.45-.88c0-.15,0-.29,0-.44a2.33,2.33,0,0,0-.52-1.31,2.43,2.43,0,0,0-2.14-.94,1,1,0,0,1-.65-.17.92.92,0,0,1-.25-1.25.89.89,0,0,1,.71-.44,4.3,4.3,0,0,1,2.73.67A4.14,4.14,0,0,1,20.24,278.25Z"/><g class="cls-6"><path class="cls-7" d="M8.93,275.52l.17-.11a1.24,1.24,0,0,1,1.4.13l.11.11,12.24,12.23a1.24,1.24,0,0,1,.38.83,1.21,1.21,0,0,1-.23.8,1.63,1.63,0,0,1-.17.2l-.78.78a.18.18,0,0,1-.13.06h-6a.23.23,0,0,0-.17.08l-2.12,2.12a1.21,1.21,0,0,1-1.2.32,1.23,1.23,0,0,1-.43-.21l-.21-.18-6.05-6.06a1.24,1.24,0,0,1-.21-1.51,1.39,1.39,0,0,1,.21-.27l2.12-2.12a.19.19,0,0,0,.07-.15c0-2,0-4,0-6v-.08ZM12.78,291l.07-.07L15,288.74a.19.19,0,0,1,.15-.06H21c-.09-.1-11.12-11.13-11.18-11.16v5.82a.17.17,0,0,1-.06.15l-2.16,2.16-.07.07Z"/><path class="cls-7" d="M23.12,275.88l.07.09a6.67,6.67,0,0,1,1,1.33,8,8,0,0,1,1.07,4,.93.93,0,0,1-1.3.88.9.9,0,0,1-.57-.86,6.57,6.57,0,0,0-.18-1.47,6.19,6.19,0,0,0-1-2.12,6.57,6.57,0,0,0-.94-1,6.12,6.12,0,0,0-3.28-1.5,7.34,7.34,0,0,0-.81-.05.89.89,0,0,1-.81-.49.91.91,0,0,1,0-.94.93.93,0,0,1,.82-.44,7.77,7.77,0,0,1,1.8.21,8,8,0,0,1,2.64,1.15,6.64,6.64,0,0,1,.73.55l.15.13a.27.27,0,0,0,.08.07Z"/><path class="cls-7" d="M20.24,278.25a4.29,4.29,0,0,1,1.25,3.46.93.93,0,0,1-1.41.72.92.92,0,0,1-.45-.88c0-.15,0-.29,0-.44a2.33,2.33,0,0,0-.52-1.31,2.43,2.43,0,0,0-2.14-.94,1,1,0,0,1-.65-.17.92.92,0,0,1-.25-1.25.89.89,0,0,1,.71-.44,4.3,4.3,0,0,1,2.73.67A4.14,4.14,0,0,1,20.24,278.25Z"/></g></g><g id="_2scTp0-3" data-name="2scTp0"><path class="cls-5" d="M276.59,289.57a1.63,1.63,0,0,1-.11-.17,1.24,1.24,0,0,1,.13-1.4l.1-.12L289,275.65a1.25,1.25,0,0,1,.82-.39,1.23,1.23,0,0,1,.81.24l.2.17.78.77a.17.17,0,0,1,.05.14v6a.26.26,0,0,0,.07.18c.71.7,1.42,1.41,2.12,2.12a1.18,1.18,0,0,1,.33,1.19,1.15,1.15,0,0,1-.21.43,1.9,1.9,0,0,1-.19.21l-6.05,6.05a1.23,1.23,0,0,1-1.51.22,1.42,1.42,0,0,1-.28-.22l-2.12-2.12a.18.18,0,0,0-.14-.06h-6.05ZM292,285.72l-.08-.08-2.15-2.15a.2.2,0,0,1-.07-.16v-5.82c-.11.08-11.13,11.12-11.16,11.17h5.81a.2.2,0,0,1,.16.07l2.16,2.15.07.08Z"/><path class="cls-5" d="M277,275.37l.08-.06a7.08,7.08,0,0,1,1.34-1,8.15,8.15,0,0,1,4-1.07.94.94,0,0,1,.88,1.3.88.88,0,0,1-.87.57,7.2,7.2,0,0,0-1.46.18,6.2,6.2,0,0,0-4.65,5.19,7.36,7.36,0,0,0-.06.81.92.92,0,0,1-1.42.79.87.87,0,0,1-.44-.81,7.86,7.86,0,0,1,.21-1.81,8,8,0,0,1,1.14-2.64c.17-.25.36-.49.55-.72l.14-.15.06-.08Z"/><path class="cls-5" d="M279.32,278.25a4.32,4.32,0,0,1,3.46-1.24.93.93,0,0,1-.16,1.86,2.16,2.16,0,0,0-.44,0,2.45,2.45,0,0,0-1.32.51,2.4,2.4,0,0,0-.93,2.14,1.09,1.09,0,0,1-.17.66.94.94,0,0,1-1.26.25.9.9,0,0,1-.43-.72,4.26,4.26,0,0,1,.67-2.73A4.14,4.14,0,0,1,279.32,278.25Z"/><g class="cls-6"><path class="cls-7" d="M276.59,289.57a1.63,1.63,0,0,1-.11-.17,1.24,1.24,0,0,1,.13-1.4l.1-.12L289,275.65a1.25,1.25,0,0,1,.82-.39,1.23,1.23,0,0,1,.81.24l.2.17.78.77a.17.17,0,0,1,.05.14v6a.26.26,0,0,0,.07.18c.71.7,1.42,1.41,2.12,2.12a1.18,1.18,0,0,1,.33,1.19,1.15,1.15,0,0,1-.21.43,1.9,1.9,0,0,1-.19.21l-6.05,6.05a1.23,1.23,0,0,1-1.51.22,1.42,1.42,0,0,1-.28-.22l-2.12-2.12a.18.18,0,0,0-.14-.06h-6.05ZM292,285.72l-.08-.08-2.15-2.15a.2.2,0,0,1-.07-.16v-5.82c-.11.08-11.13,11.12-11.16,11.17h5.81a.2.2,0,0,1,.16.07l2.16,2.15.07.08Z"/><path class="cls-7" d="M277,275.37l.08-.06a7.08,7.08,0,0,1,1.34-1,8.15,8.15,0,0,1,4-1.07.94.94,0,0,1,.88,1.3.88.88,0,0,1-.87.57,7.2,7.2,0,0,0-1.46.18,6.2,6.2,0,0,0-4.65,5.19,7.36,7.36,0,0,0-.06.81.92.92,0,0,1-1.42.79.87.87,0,0,1-.44-.81,7.86,7.86,0,0,1,.21-1.81,8,8,0,0,1,1.14-2.64c.17-.25.36-.49.55-.72l.14-.15.06-.08Z"/><path class="cls-7" d="M279.32,278.25a4.32,4.32,0,0,1,3.46-1.24.93.93,0,0,1-.16,1.86,2.16,2.16,0,0,0-.44,0,2.45,2.45,0,0,0-1.32.51,2.4,2.4,0,0,0-.93,2.14,1.09,1.09,0,0,1-.17.66.94.94,0,0,1-1.26.25.9.9,0,0,1-.43-.72,4.26,4.26,0,0,1,.67-2.73A4.14,4.14,0,0,1,279.32,278.25Z"/></g></g><g id="_2scTp0-4" data-name="2scTp0"><path class="cls-5" d="M290.63,21.91l-.17.1a1.21,1.21,0,0,1-1.39-.12l-.12-.11L276.72,9.55a1.25,1.25,0,0,1-.39-.83,1.21,1.21,0,0,1,.23-.8,1.63,1.63,0,0,1,.17-.2l.78-.78a.18.18,0,0,1,.13-.06h6a.22.22,0,0,0,.17-.07c.71-.71,1.41-1.42,2.12-2.12a1.21,1.21,0,0,1,1.2-.32,1.15,1.15,0,0,1,.43.21l.21.18,6.05,6.05a1.26,1.26,0,0,1,.21,1.52,1.09,1.09,0,0,1-.21.27l-2.12,2.12a.17.17,0,0,0-.06.15v6a.22.22,0,0,0,0,.08ZM286.78,6.46l-.07.07-2.15,2.16a.23.23,0,0,1-.16.06h-5.83c.09.11,11.12,11.14,11.18,11.17V14.1a.2.2,0,0,1,.06-.15L292,11.79l.07-.07Z"/><path class="cls-5" d="M276.44,21.55l-.07-.09a6.73,6.73,0,0,1-1-1.34,8,8,0,0,1-1.07-4,.93.93,0,0,1,1.3-.88.9.9,0,0,1,.57.86,6.48,6.48,0,0,0,.18,1.46,6,6,0,0,0,1,2.12,5.76,5.76,0,0,0,.93,1,6.15,6.15,0,0,0,3.28,1.5c.27,0,.54,0,.81.05a.9.9,0,0,1,.81.48.87.87,0,0,1,0,.94.92.92,0,0,1-.82.45,7.77,7.77,0,0,1-1.8-.21,8,8,0,0,1-2.64-1.15,7.74,7.74,0,0,1-.73-.55l-.15-.14-.07-.06Z"/><path class="cls-5" d="M279.32,19.17a4.26,4.26,0,0,1-1.25-3.45.93.93,0,0,1,1.41-.72.92.92,0,0,1,.45.88c0,.14,0,.29,0,.44a2.33,2.33,0,0,0,.52,1.31,2.43,2.43,0,0,0,2.14.94,1,1,0,0,1,.66.17.93.93,0,0,1,.24,1.25.9.9,0,0,1-.71.44,4.3,4.3,0,0,1-2.73-.67A4.19,4.19,0,0,1,279.32,19.17Z"/><g class="cls-6"><path class="cls-7" d="M290.63,21.91l-.17.1a1.21,1.21,0,0,1-1.39-.12l-.12-.11L276.72,9.55a1.25,1.25,0,0,1-.39-.83,1.21,1.21,0,0,1,.23-.8,1.63,1.63,0,0,1,.17-.2l.78-.78a.18.18,0,0,1,.13-.06h6a.22.22,0,0,0,.17-.07c.71-.71,1.41-1.42,2.12-2.12a1.21,1.21,0,0,1,1.2-.32,1.15,1.15,0,0,1,.43.21l.21.18,6.05,6.05a1.26,1.26,0,0,1,.21,1.52,1.09,1.09,0,0,1-.21.27l-2.12,2.12a.17.17,0,0,0-.06.15v6a.22.22,0,0,0,0,.08ZM286.78,6.46l-.07.07-2.15,2.16a.23.23,0,0,1-.16.06h-5.83c.09.11,11.12,11.14,11.18,11.17V14.1a.2.2,0,0,1,.06-.15L292,11.79l.07-.07Z"/><path class="cls-7" d="M276.44,21.55l-.07-.09a6.73,6.73,0,0,1-1-1.34,8,8,0,0,1-1.07-4,.93.93,0,0,1,1.3-.88.9.9,0,0,1,.57.86,6.48,6.48,0,0,0,.18,1.46,6,6,0,0,0,1,2.12,5.76,5.76,0,0,0,.93,1,6.15,6.15,0,0,0,3.28,1.5c.27,0,.54,0,.81.05a.9.9,0,0,1,.81.48.87.87,0,0,1,0,.94.92.92,0,0,1-.82.45,7.77,7.77,0,0,1-1.8-.21,8,8,0,0,1-2.64-1.15,7.74,7.74,0,0,1-.73-.55l-.15-.14-.07-.06Z"/><path class="cls-7" d="M279.32,19.17a4.26,4.26,0,0,1-1.25-3.45.93.93,0,0,1,1.41-.72.92.92,0,0,1,.45.88c0,.14,0,.29,0,.44a2.33,2.33,0,0,0,.52,1.31,2.43,2.43,0,0,0,2.14.94,1,1,0,0,1,.66.17.93.93,0,0,1,.24,1.25.9.9,0,0,1-.71.44,4.3,4.3,0,0,1-2.73-.67A4.19,4.19,0,0,1,279.32,19.17Z"/></g></g></g></g></g></g></svg>