<svg xmlns="http://www.w3.org/2000/svg" xmlns:xlink="http://www.w3.org/1999/xlink" viewBox="0 0 186.72 26.36"><defs><style>.cls-1{isolation:isolate;}.cls-2,.cls-3,.cls-4{stroke:#fff;stroke-linecap:round;}.cls-2{stroke-linejoin:round;stroke-width:0.85px;fill:url(#名称未設定グラデーション_104);}.cls-3,.cls-4{fill:none;stroke-width:0.43px;}.cls-3{mix-blend-mode:soft-light;}</style><linearGradient id="名称未設定グラデーション_104" x1="93.36" y1="0.43" x2="93.36" y2="25.94" gradientUnits="userSpaceOnUse"><stop offset="0" stop-color="#152248"/><stop offset="1" stop-color="#164681"/></linearGradient></defs><title>timeline</title><g class="cls-1"><g id="レイヤー_2" data-name="レイヤー 2"><g id="Screen"><g id="Motion_Timeline" data-name="Motion Timeline"><g id="Timeline"><rect class="cls-2" x="0.43" y="0.43" width="185.87" height="25.51" rx="0.85" ry="0.85"/><line class="cls-3" x1="12.05" y1="21.69" x2="12.05" y2="4.68"/><line class="cls-3" x1="23.67" y1="21.69" x2="23.67" y2="4.68"/><line class="cls-3" x1="35.29" y1="21.69" x2="35.29" y2="4.68"/><line class="cls-4" x1="46.91" y1="21.69" x2="46.91" y2="4.68"/><line class="cls-3" x1="58.54" y1="21.69" x2="58.54" y2="4.68"/><line class="cls-3" x1="70.16" y1="21.69" x2="70.16" y2="4.68"/><line class="cls-3" x1="81.78" y1="21.69" x2="81.78" y2="4.68"/><line class="cls-4" x1="93.4" y1="21.69" x2="93.4" y2="4.68"/><line class="cls-3" x1="105.02" y1="21.69" x2="105.02" y2="4.68"/><line class="cls-3" x1="116.65" y1="21.69" x2="116.65" y2="4.68"/><line class="cls-3" x1="128.27" y1="21.69" x2="128.27" y2="4.68"/><line class="cls-4" x1="139.89" y1="21.69" x2="139.89" y2="4.68"/><line class="cls-3" x1="151.51" y1="21.69" x2="151.51" y2="4.68"/><line class="cls-3" x1="163.13" y1="21.69" x2="163.13" y2="4.68"/><line class="cls-3" x1="174.76" y1="21.69" x2="174.76" y2="4.68"/></g></g></g></g></g></svg>